# xmcd
#
# Track frame offsets: 
#        150
#        21770
#        41662
#        63082
#        81316
#        98549
#        112820
#        134248
#        155043
#        177153
#        193545
#        206231
#        230004
#
# Disc length: 3100 seconds
#
# Revision: 0
# Processed by: cddbd v1.5PL3 Copyright (c) Steve Scherf et al.
# Submitted via: ExactAudioCopy v0.95a5
#
DISCID=b10c1a0d
DTITLE=Macy Gray - The ID
DYEAR=2001
DGENRE=Blues
TTITLE0=Related To A Psychopath
TTITLE1=Boo
TTITLE2=Sexual Revolution
TTITLE3=Hey Young World II
TTITLE4=Sweet Baby (ft Erykah Badu)
TTITLE5=Harry
TTITLE6=Give Me All Your Lovin Or I Will Kill You
TTITLE7=Dont Come Around
TTITLE8=My Nutmeg Fantasy
TTITLE9=Freak Like Me
TTITLE10=Oblivion
TTITLE11=Forgiveness
TTITLE12=Blowin Up Your Speakers
EXTD=
EXTT0=
EXTT1=
EXTT2=
EXTT3=
EXTT4=
EXTT5=
EXTT6=
EXTT7=
EXTT8=
EXTT9=
EXTT10=
EXTT11=
EXTT12=
PLAYORDER=
